<svg id="Layer_1" data-name="Layer 1" xmlns="http://www.w3.org/2000/svg" viewBox="0 0 1252.81 582.33"><defs><style>.cls-1{fill:#ffcb27;}.cls-2{fill:#231f20;}</style></defs><title>full-logo</title><path class="cls-1" d="M449.14,226.11l0.06,130a44.33,44.33,0,0,1-22.15,38.4l-112.53,65a44.33,44.33,0,0,1-44.33,0L157.6,394.6a44.33,44.33,0,0,1-22.18-38.38l-0.06-130a44.33,44.33,0,0,1,22.15-38.4l112.53-65a44.33,44.33,0,0,1,44.33,0L427,187.73A44.33,44.33,0,0,1,449.14,226.11Z" transform="translate(-33.17)"/><path class="cls-2" d="M292.34,474.45a53.31,53.31,0,0,1-26.64-7.11L153.11,402.4a53.48,53.48,0,0,1-26.69-46.17l-0.06-130A53.48,53.48,0,0,1,153,180.06l112.53-65a53.48,53.48,0,0,1,53.33,0l112.59,64.94a53.48,53.48,0,0,1,26.69,46.17h0l0.06,130a53.47,53.47,0,0,1-26.64,46.2L319,467.31A53.32,53.32,0,0,1,292.34,474.45Zm-0.12-348.57a35.32,35.32,0,0,0-17.68,4.73L162,195.64a35.43,35.43,0,0,0-17.65,30.6l0.06,130a35.43,35.43,0,0,0,17.68,30.59l112.59,64.94a35.43,35.43,0,0,0,35.33,0l112.53-65a35.43,35.43,0,0,0,17.65-30.6l-0.06-130h0a35.43,35.43,0,0,0-17.68-30.59L309.87,130.59A35.32,35.32,0,0,0,292.22,125.88Z" transform="translate(-33.17)"/><path class="cls-2" d="M391.61,405.76L391.54,255a35.42,35.42,0,0,0-17.68-30.59l9-15.59a53.48,53.48,0,0,1,26.69,46.17l0.07,150.81h-18Z" transform="translate(-33.17)"/><rect class="cls-2" x="301.7" y="99.92" width="18" height="155.89" transform="translate(-31.13 359.26) rotate(-60.23)"/><path class="cls-2" d="M355,441.88l-18,0,0.17-159.24a35.42,35.42,0,0,0-17.68-30.57l9-15.59a53.48,53.48,0,0,1,26.69,46.17Z" transform="translate(-33.17)"/><rect class="cls-2" x="251.87" y="134.93" width="18" height="145.81" transform="translate(-82.67 329.98) rotate(-60.03)"/><path class="cls-2" d="M284.72,462.17l-0.07-145.81A35.43,35.43,0,0,0,267,285.78l9-15.59a53.48,53.48,0,0,1,26.69,46.17l0.07,145.81h-18Z" transform="translate(-33.17)"/><rect class="cls-2" x="199.24" y="168.81" width="18" height="145.8" transform="translate(-138.21 302.07) rotate(-60.16)"/><path class="cls-2" d="M292.39,582.33a51.3,51.3,0,0,1-25.64-6.84L59,455.66a51.47,51.47,0,0,1-25.68-44.44L33.17,171.35a51.47,51.47,0,0,1,25.64-44.46l207.67-120a51.47,51.47,0,0,1,51.33,0L525.6,126.68a51.47,51.47,0,0,1,25.68,44.44h-14a37.43,37.43,0,0,0-18.68-32.32L310.82,19a37.43,37.43,0,0,0-37.33,0L65.82,139a37.43,37.43,0,0,0-18.65,32.34l0.11,239.86A37.43,37.43,0,0,0,66,443.53L273.74,563.36a37.43,37.43,0,0,0,37.33,0l207.67-120A37.43,37.43,0,0,0,537.39,411h14a51.47,51.47,0,0,1-25.64,44.46l-207.67,120A51.32,51.32,0,0,1,292.39,582.33Z" transform="translate(-33.17)"/><path class="cls-2" d="M537.29,222.43h14v55.24h0.31a20.64,20.64,0,0,1,9.18-9.57,30.4,30.4,0,0,1,15.09-3.66,32,32,0,0,1,10.19,1.63,23,23,0,0,1,8.56,5.06,24.43,24.43,0,0,1,5.84,8.79,33.66,33.66,0,0,1,2.18,12.68v47.46h-14V296.49a24.62,24.62,0,0,0-1.4-8.79,16.09,16.09,0,0,0-3.73-5.91,14,14,0,0,0-5.37-3.27,19.81,19.81,0,0,0-6.3-1,22.87,22.87,0,0,0-8.09,1.4,16.86,16.86,0,0,0-6.53,4.43,20.92,20.92,0,0,0-4.36,7.7,35,35,0,0,0-1.56,11v38h-14V222.43Z" transform="translate(-33.17)"/><path class="cls-2" d="M621.62,239.86a10.36,10.36,0,1,1,3,7.23A9.88,9.88,0,0,1,621.62,239.86Zm3.27,26.45h14v73.75h-14V266.31Z" transform="translate(-33.17)"/><path class="cls-2" d="M652.27,266.31h16.18l22.09,56.48,21.16-56.48h14.94L697.7,340.06H682.3Z" transform="translate(-33.17)"/><path class="cls-2" d="M749.51,308.32a18.49,18.49,0,0,0,2.1,8.79,21.88,21.88,0,0,0,5.52,6.77,25.51,25.51,0,0,0,7.94,4.36,28.42,28.42,0,0,0,9.34,1.56,20.89,20.89,0,0,0,11.36-3,36.59,36.59,0,0,0,8.87-8l10.58,8.09q-11.67,15.09-32.67,15.09a40.64,40.64,0,0,1-15.79-3,34.33,34.33,0,0,1-12-8.17,36.19,36.19,0,0,1-7.55-12.29,43.4,43.4,0,0,1-2.64-15.33,40.28,40.28,0,0,1,2.88-15.33,38,38,0,0,1,7.94-12.29,36.23,36.23,0,0,1,12.06-8.17,38.83,38.83,0,0,1,15.25-3q9.8,0,16.57,3.42a32.78,32.78,0,0,1,11.12,8.95,35.38,35.38,0,0,1,6.3,12.45,51.84,51.84,0,0,1,1.95,14.08v5H749.51Zm44.19-11.2a29.64,29.64,0,0,0-1.48-8.56,18.88,18.88,0,0,0-4-6.77,18.31,18.31,0,0,0-6.61-4.51,24.2,24.2,0,0,0-9.26-1.63,22.5,22.5,0,0,0-9.41,1.95,22.92,22.92,0,0,0-7.23,5.06,23.4,23.4,0,0,0-4.59,6.92,19.07,19.07,0,0,0-1.63,7.55H793.7Z" transform="translate(-33.17)"/><path class="cls-1" d="M942.76,340.06H879.27a58.54,58.54,0,0,1-22.09-4.2A56.46,56.46,0,0,1,839,324.19a54.64,54.64,0,0,1-12.29-17.82,56,56,0,0,1-4.51-22.64,57.35,57.35,0,0,1,4.36-22.48,54.88,54.88,0,0,1,30.11-29.87,58.26,58.26,0,0,1,22.48-4.28A56.79,56.79,0,0,1,901,231.3a56,56,0,0,1,17.82,11.59,54.93,54.93,0,0,1,12.06,17.43,53.48,53.48,0,0,1,4.43,21.86,58.47,58.47,0,0,1-1.63,13.77,52.63,52.63,0,0,1-4.82,12.68,44.19,44.19,0,0,1-7.94,10.58,38.07,38.07,0,0,1-10.81,7.47V327h32.67v13.07Zm-64.1-14a40.42,40.42,0,0,0,16.57-3.34,38.54,38.54,0,0,0,12.91-9.18,41.46,41.46,0,0,0,8.32-13.77,48.2,48.2,0,0,0,3-17,43.78,43.78,0,0,0-3-16.34,39.93,39.93,0,0,0-8.48-13.23,40.25,40.25,0,0,0-29.25-12.14,39.36,39.36,0,0,0-16.1,3.27,40.57,40.57,0,0,0-12.84,8.87,41.12,41.12,0,0,0-8.56,13.15,41.81,41.81,0,0,0-3.11,16.1,48.15,48.15,0,0,0,3,17,42.31,42.31,0,0,0,8.32,13.85A38.86,38.86,0,0,0,878.65,326.06Z" transform="translate(-33.17)"/><path class="cls-1" d="M958.47,229.9H973.4v96.16H1024v14h-65.5V229.9Z" transform="translate(-33.17)"/><path class="cls-2" d="M1101,340.06h-14V328.7h-0.31a20.64,20.64,0,0,1-9.18,9.57,30.41,30.41,0,0,1-15.09,3.66,31.78,31.78,0,0,1-10.27-1.63,23.08,23.08,0,0,1-8.48-5.06,24.35,24.35,0,0,1-5.83-8.79,33.58,33.58,0,0,1-2.18-12.68V266.31h14v43.57a24.62,24.62,0,0,0,1.4,8.79,16.05,16.05,0,0,0,3.73,5.91,14,14,0,0,0,5.37,3.27,19.76,19.76,0,0,0,6.3,1,22.86,22.86,0,0,0,8.09-1.4,16.86,16.86,0,0,0,6.53-4.43,21,21,0,0,0,4.36-7.7,35.07,35.07,0,0,0,1.56-11v-38h14v73.75Z" transform="translate(-33.17)"/><path class="cls-2" d="M1122.15,266.31h14v11.36h0.31a20.64,20.64,0,0,1,9.18-9.57,30.4,30.4,0,0,1,15.09-3.66,32,32,0,0,1,10.19,1.63,23,23,0,0,1,8.56,5.06,24.43,24.43,0,0,1,5.84,8.79,33.66,33.66,0,0,1,2.18,12.68v47.46h-14V296.49a24.62,24.62,0,0,0-1.4-8.79,16.09,16.09,0,0,0-3.73-5.91,14,14,0,0,0-5.37-3.27,19.81,19.81,0,0,0-6.3-1,22.87,22.87,0,0,0-8.09,1.4,16.86,16.86,0,0,0-6.53,4.43,20.92,20.92,0,0,0-4.36,7.7,35,35,0,0,0-1.56,11v38h-14V266.31Z" transform="translate(-33.17)"/><path class="cls-2" d="M1206.48,239.86a10.36,10.36,0,1,1,3,7.23A9.88,9.88,0,0,1,1206.48,239.86Zm3.27,26.45h14v73.75h-14V266.31Z" transform="translate(-33.17)"/><path class="cls-2" d="M1285.52,278.45h-20.07V311.9q0,3.11.16,6.15a16.05,16.05,0,0,0,1.17,5.45,8.82,8.82,0,0,0,3.11,3.89,10.63,10.63,0,0,0,6.15,1.48,29.56,29.56,0,0,0,5.13-.47,14.86,14.86,0,0,0,4.82-1.71v12.76a18.31,18.31,0,0,1-6.46,1.94,48.62,48.62,0,0,1-6.15.55q-8.09,0-12.53-2.26a15.36,15.36,0,0,1-6.53-5.83,18.85,18.85,0,0,1-2.49-8q-0.39-4.43-.39-8.95V278.45h-16.18V266.31h16.18V245.62h14v20.69h20.07v12.14Z" transform="translate(-33.17)"/></svg>